HIERARCHY
ROOT hip
{
  OFFSET 0 0 0
  CHANNELS 6 Xposition Yposition Zposition Zrotation Yrotation Xrotation
  JOINT abdomen
  {
    OFFSET 0 20.6881 -0.73152
    CHANNELS 3 Zrotation Xrotation Yrotation
    JOINT chest
    {
      OFFSET 0 11.7043 -0.48768
      CHANNELS 3 Zrotation Xrotation Yrotation
      JOINT neck
      {
        OFFSET 0 22.1894 -2.19456
        CHANNELS 3 Zrotation Xrotation Yrotation
        JOINT head
        {
          OFFSET -0.24384 7.07133 1.2192
          CHANNELS 3 Zrotation Xrotation Yrotation
          JOINT leftEye
          {
            OFFSET 4.14528 8.04674 8.04672
            CHANNELS 3 Zrotation Xrotation Yrotation
            End Site
            {
              OFFSET 1 0 0
            }
          }
          JOINT rightEye
          {
            OFFSET -3.6576 8.04674 8.04672
            CHANNELS 3 Zrotation Xrotation Yrotation
            End Site
            {
              OFFSET 1 0 0
            }
          }
        }
      }
      JOINT rCollar
      {
        OFFSET -2.68224 19.2634 -4.8768
        CHANNELS 3 Zrotation Xrotation Yrotation
        JOINT rShldr
        {
          OFFSET -8.77824 -1.95073 1.46304
          CHANNELS 3 Zrotation Xrotation Yrotation
          JOINT rForeArm
          {
            OFFSET -28.1742 -1.7115 0.48768
            CHANNELS 3 Zrotation Xrotation Yrotation
            JOINT rHand
            {
              OFFSET -22.5879 0.773209 7.07136
              CHANNELS 3 Zrotation Xrotation Yrotation
              JOINT rThumb1
              {
                OFFSET -1.2192 -0.487915 3.41376
                CHANNELS 3 Zrotation Xrotation Yrotation
                JOINT rThumb2
                {
                  OFFSET -3.37035 -0.52449 3.41376
                  CHANNELS 3 Zrotation Xrotation Yrotation
                  End Site
                  {
                    OFFSET -1.78271 -1.18214 1.43049
                  }
                }
              }
              JOINT rIndex1
              {
                OFFSET -7.75947 0.938293 5.60832
                CHANNELS 3 Zrotation Xrotation Yrotation
                JOINT rIndex2
                {
                  OFFSET -2.54057 -0.884171 1.56538
                  CHANNELS 3 Zrotation Xrotation Yrotation
                  End Site
                  {
                    OFFSET -1.62519 -0.234802 1.16502
                  }
                }
              }
              JOINT rMid1
              {
                OFFSET -8.24714 1.18213 3.41376
                CHANNELS 3 Zrotation Xrotation Yrotation
                JOINT rMid2
                {
                  OFFSET -3.10165 -0.590103 1.0647
                  CHANNELS 3 Zrotation Xrotation Yrotation
                  End Site
                  {
                    OFFSET -2.48547 -0.328903 0.83742
                  }
                }
              }
              JOINT rRing1
              {
                OFFSET -8.82822 0.546677 1.51678
                CHANNELS 3 Zrotation Xrotation Yrotation
                JOINT rRing2
                {
                  OFFSET -2.60934 -0.819778 -0.0198488
                  CHANNELS 3 Zrotation Xrotation Yrotation
                  End Site
                  {
                    OFFSET -2.33842 -0.294052 0.168128
                  }
                }
              }
              JOINT rPinky1
              {
                OFFSET -8.27202 -0.0477905 -0.4584
                CHANNELS 3 Zrotation Xrotation Yrotation
                JOINT rPinky2
                {
                  OFFSET -1.82734 -0.647385 -0.700984
                  CHANNELS 3 Zrotation Xrotation Yrotation
                  End Site
                  {
                    OFFSET -1.69225 -0.51767 -0.607171
                  }
                }
              }
            }
          }
        }
      }
      JOINT lCollar
      {
        OFFSET 2.68224 19.2634 -4.8768
        CHANNELS 3 Zrotation Xrotation Yrotation
        JOINT lShldr
        {
          OFFSET 8.77824 -1.95073 1.46304
          CHANNELS 3 Zrotation Xrotation Yrotation
          JOINT lForeArm
          {
            OFFSET 28.1742 -1.7115 0.48768
            CHANNELS 3 Zrotation Xrotation Yrotation
            JOINT lHand
            {
              OFFSET 22.5879 0.773209 7.07136
              CHANNELS 3 Zrotation Xrotation Yrotation
              JOINT lThumb1
              {
                OFFSET 1.2192 -0.487915 3.41376
                CHANNELS 3 Zrotation Xrotation Yrotation
                JOINT lThumb2
                {
                  OFFSET 3.37035 -0.52449 3.41376
                  CHANNELS 3 Zrotation Xrotation Yrotation
                  End Site
                  {
                    OFFSET 1.78271 -1.18214 1.43049
                  }
                }
              }
              JOINT lIndex1
              {
                OFFSET 7.75947 0.938293 5.60832
                CHANNELS 3 Zrotation Xrotation Yrotation
                JOINT lIndex2
                {
                  OFFSET 2.54057 -0.884171 1.56538
                  CHANNELS 3 Zrotation Xrotation Yrotation
                  End Site
                  {
                    OFFSET 1.62519 -0.234802 1.16502
                  }
                }
              }
              JOINT lMid1
              {
                OFFSET 8.24714 1.18213 3.41376
                CHANNELS 3 Zrotation Xrotation Yrotation
                JOINT lMid2
                {
                  OFFSET 3.10165 -0.590103 1.0647
                  CHANNELS 3 Zrotation Xrotation Yrotation
                  End Site
                  {
                    OFFSET 2.48547 -0.328903 0.83742
                  }
                }
              }
              JOINT lRing1
              {
                OFFSET 8.82822 0.546677 1.51678
                CHANNELS 3 Zrotation Xrotation Yrotation
                JOINT lRing2
                {
                  OFFSET 2.60934 -0.819778 -0.0198488
                  CHANNELS 3 Zrotation Xrotation Yrotation
                  End Site
                  {
                    OFFSET 2.33842 -0.294052 0.168128
                  }
                }
              }
              JOINT lPinky1
              {
                OFFSET 8.27202 -0.0477905 -0.4584
                CHANNELS 3 Zrotation Xrotation Yrotation
                JOINT lPinky2
                {
                  OFFSET 1.82734 -0.647385 -0.700984
                  CHANNELS 3 Zrotation Xrotation Yrotation
                  End Site
                  {
                    OFFSET 1.69225 -0.51767 -0.607171
                  }
                }
              }
            }
          }
        }
      }
    }
  }
  JOINT rButtock
  {
    OFFSET -8.77824 4.35084 1.2192
    CHANNELS 3 Zrotation Xrotation Yrotation
    JOINT rThigh
    {
      OFFSET 0 -1.70687 -2.19456
      CHANNELS 3 Zrotation Xrotation Yrotation
      JOINT rShin
      {
        OFFSET 0 -36.8199 0.73152
        CHANNELS 3 Zrotation Xrotation Yrotation
        JOINT rFoot
        {
          OFFSET 0.73152 -45.1104 -5.12064
          CHANNELS 3 Zrotation Xrotation Yrotation
          End Site
          {
            OFFSET -1.1221 -3.69964 12.103
          }
        }
      }
    }
  }
  JOINT lButtock
  {
    OFFSET 8.77824 4.35084 1.2192
    CHANNELS 3 Zrotation Xrotation Yrotation
    JOINT lThigh
    {
      OFFSET 0 -1.70687 -2.19456
      CHANNELS 3 Zrotation Xrotation Yrotation
      JOINT lShin
      {
        OFFSET 0 -36.8199 0.73152
        CHANNELS 3 Zrotation Xrotation Yrotation
        JOINT lFoot
        {
          OFFSET -0.73152 -45.1104 -5.12064
          CHANNELS 3 Zrotation Xrotation Yrotation
          End Site
          {
            OFFSET 1.1221 -3.69964 12.103
          }
        }
      }
    }
  }
}
MOTION
Frames:	4
Frame Time:	0.03333
-101.04661408476353 -0.4857576643251649 18.610796330602533 -17.99056053161621 -8.314831733703613 143.3150634765625 105.8283920288086 -44.11848449707031 6.855576038360596 168.64706420898438 26.259050369262695 -68.14080047607422 -179.4790802001953 -59.48820495605469 -85.23302459716797 -77.76350402832031 -25.85477066040039 23.844640731811523 -150.4713592529297 -59.275936126708984 31.695648193359375 -174.6768798828125 22.951013565063477 179.28005981445312 -142.97361755371094 -0.4353077709674835 -8.826990127563477 151.77317810058594 28.902231216430664 -59.17610549926758 -95.67198181152344 20.945526123046875 -5.3515191078186035 -130.44705200195312 -37.5198860168457 95.04544067382812 150.0342559814453 -23.162866592407227 124.55875396728516 -136.57211303710938 21.4148006439209 96.96643829345703 102.38856506347656 -11.949228286743164 126.91024780273438 -43.81504821777344 41.28616714477539 87.69853210449219 -2.3038148880004883 17.496498107910156 -45.676353454589844 -174.30221557617188 18.287126541137695 -128.4522247314453 -172.61380004882812 -5.608155727386475 22.797895431518555 122.11078643798828 26.72848129272461 94.03733825683594 -97.15589141845703 -37.558834075927734 -100.60872650146484 -173.67584228515625 -19.113433837890625 75.65935516357422 46.34233093261719 -4.958437442779541 -0.5253787040710449 42.557456970214844 5.077666282653809 -90.08260345458984 -29.80051612854004 -41.28761291503906 -173.9692840576172 42.712764739990234 -24.58361053466797 -31.0732479095459 -128.01954650878906 55.17997360229492 164.5706024169922 6.72585916519165 18.174253463745117 8.030658721923828 -130.64059448242188 10.361873626708984 68.14389038085938 83.95052337646484 -33.52256393432617 121.08826446533203 -91.6214370727539 -22.992429733276367 -117.03440856933594 23.95145034790039 -23.81450653076172 -43.50777816772461 -146.5296630859375 28.557147979736328 -137.59584045410156 23.557714462280273 41.918495178222656 8.397381782531738 41.4632453918457 23.499637603759766 164.0736541748047 65.9096450805664 46.174442291259766 -171.85389709472656 85.18892669677734 -54.95607376098633 62.92970657348633 -39.65797805786133 28.114686965942383 -155.6279754638672 166.73486328125 33.98126220703125 29.554889678955078 -44.41817092895508 -9.064045906066895 113.84864807128906 -76.43339538574219 -51.77324295043945 74.08284759521484 76.35704040527344 -8.174212455749512 127.53495025634766 114.98915100097656 -40.12451934814453 -32.0925178527832 155.7384796142578 -19.95436668395996 -5.909718990325928
-103.0795475339013 -0.4527879676755431 18.895779090171292 -14.400290489196777 -9.233508110046387 143.8136444091797 105.9935073852539 -42.51311111450195 5.870027542114258 169.8140106201172 25.828100204467773 -68.4649887084961 -177.2252960205078 -58.41873550415039 -83.97882080078125 -76.2801284790039 -24.819860458374023 21.538930892944336 -149.46510314941406 -58.52764892578125 32.115726470947266 -174.2646026611328 23.602577209472656 179.54177856445312 -142.50665283203125 -1.0440568923950195 -9.650116920471191 148.26893615722656 28.744937896728516 -59.107540130615234 -95.84089660644531 21.7535400390625 -5.681239604949951 -132.1783447265625 -37.0441780090332 94.02845001220703 147.2129669189453 -21.944272994995117 124.94281005859375 -136.57374572753906 20.986865997314453 95.48767852783203 101.45275115966797 -12.000411987304688 127.14591979980469 -40.833534240722656 40.95363998413086 86.7977294921875 -2.8824808597564697 17.30545425415039 -45.76714324951172 -174.8848876953125 20.18686866760254 -128.0135040283203 -172.48997497558594 -5.96681547164917 24.28226089477539 120.21995544433594 27.065168380737305 93.17630004882812 -96.62364196777344 -37.034568786621094 -99.87227630615234 -170.26405334472656 -18.38986587524414 74.92263793945312 46.341365814208984 -3.1025917530059814 -0.9152386784553528 41.87696075439453 6.274554252624512 -89.50348663330078 -28.162273406982422 -40.37356185913086 -173.03224182128906 43.185855865478516 -24.949289321899414 -30.906856536865234 -128.10952758789062 56.29264450073242 163.5155792236328 6.405222415924072 19.53392219543457 6.605334758758545 -128.82626342773438 10.778060913085938 65.49494934082031 87.51103973388672 -33.432762145996094 121.17511749267578 -91.35897064208984 -24.07878303527832 -117.61051177978516 25.530908584594727 -23.4244441986084 -43.737247467041016 -147.09475708007812 27.44783592224121 -135.62001037597656 23.272136688232422 43.10972595214844 8.956175804138184 44.203819274902344 23.363826751708984 164.6006317138672 65.71031951904297 46.65256118774414 -171.4459228515625 84.69415283203125 -55.142948150634766 64.73710632324219 -40.94953155517578 27.007137298583984 -155.06214904785156 166.50071716308594 34.078819274902344 30.146923065185547 -22.893667221069336 -9.589893341064453 114.17831420898438 -81.70490264892578 -54.34043502807617 66.61405181884766 80.51424407958984 -9.007859230041504 128.49819946289062 116.07416534423828 -40.322052001953125 -30.78865623474121 152.67921447753906 -18.313940048217773 -6.29821252822876
-105.11096532137357 -0.4312737789245021 19.208573152740726 -13.992684364318848 -9.447031021118164 144.158203125 105.06387329101562 -42.48433303833008 5.997481346130371 168.78323364257812 25.551145553588867 -68.2699203491211 -172.48391723632812 -58.62413024902344 -78.94850158691406 -76.03897857666016 -24.777151107788086 21.132558822631836 -148.67384338378906 -58.767967224121094 32.930110931396484 -174.1055908203125 24.356666564941406 179.40890502929688 -142.7555694580078 -1.0343356132507324 -9.67214298248291 147.33363342285156 28.192996978759766 -59.05791091918945 -95.47502136230469 21.505535125732422 -5.604727745056152 -131.53236389160156 -37.67095184326172 93.88555145263672 146.40249633789062 -21.612445831298828 124.63433074951172 -136.1791534423828 20.56997299194336 96.01974487304688 101.0400390625 -11.770590782165527 127.45812225341797 -41.16563415527344 41.245338439941406 86.75775146484375 -2.45666241645813 17.12865447998047 -45.949501037597656 -175.28668212890625 21.021766662597656 -127.88748168945312 -172.2563018798828 -5.256669521331787 24.539691925048828 119.13551330566406 27.753314971923828 92.58050537109375 -96.28488159179688 -37.5418586730957 -100.1197509765625 -170.89096069335938 -19.021120071411133 75.8912353515625 46.450660705566406 -2.594277858734131 0.01360021810978651 43.50571823120117 6.575965881347656 -90.02491760253906 -29.00226593017578 -39.40159225463867 -173.42709350585938 44.021705627441406 -25.41486167907715 -29.73335838317871 -126.94638061523438 56.634952545166016 162.21705627441406 6.415968894958496 19.29079246520996 7.613455295562744 -129.60488891601562 10.619356155395508 66.96096801757812 88.04490661621094 -33.24894714355469 121.0586929321289 -92.04489135742188 -24.18427276611328 -118.33032989501953 25.973844528198242 -22.32963752746582 -43.29921340942383 -146.94183349609375 27.618438720703125 -135.86984252929688 23.016626358032227 42.38700485229492 7.544440269470215 45.26759338378906 23.78014373779297 164.50465393066406 65.41412353515625 46.15981674194336 -171.2445526123047 84.21316528320312 -56.37752914428711 64.2164535522461 -41.78693771362305 27.31843376159668 -154.48980712890625 166.53761291503906 33.59806442260742 29.907691955566406 -32.741249084472656 -9.050917625427246 115.0630111694336 -85.66417694091797 -54.41532897949219 64.11946105957031 82.08607482910156 -9.603384017944336 128.3997039794922 115.56269836425781 -40.424503326416016 -30.915603637695312 152.8683624267578 -18.376800537109375 -6.3642659187316895
-107.1229023421159 -0.43596499830639013 19.557820708642886 -16.405187606811523 -9.003229141235352 144.11851501464844 103.68589782714844 -43.750003814697266 7.012019634246826 166.9358673095703 25.660287857055664 -67.82122039794922 -168.5520477294922 -59.57337951660156 -73.93553924560547 -76.92756652832031 -25.550846099853516 22.478044509887695 -148.477294921875 -59.7144889831543 33.578575134277344 -174.344482421875 24.652196884155273 179.09059143066406 -143.29127502441406 -0.529303252696991 -9.18040943145752 148.79074096679688 27.670522689819336 -59.0643310546875 -95.15269470214844 20.57345199584961 -5.377823352813721 -129.64230346679688 -38.69135665893555 94.30708312988281 147.8981170654297 -22.192115783691406 123.91716766357422 -135.65679931640625 20.33651351928711 97.88129425048828 101.16643524169922 -11.453449249267578 127.50970458984375 -43.619140625 41.8189697265625 87.33470916748047 -1.4443047046661377 17.021150588989258 -46.083396911621094 -175.21803283691406 20.51515769958496 -128.187744140625 -172.05496215820312 -4.179140090942383 23.64386558532715 119.3189468383789 28.365556716918945 92.46266174316406 -96.21369934082031 -38.46482849121094 -100.86422729492188 -174.10745239257812 -20.300594329833984 77.50643920898438 46.5852165222168 -3.3660199642181396 1.2894163131713867 45.91117858886719 6.065284252166748 -91.03007507324219 -31.575632095336914 -38.8830680847168 -174.6475067138672 44.81957244873047 -25.60377311706543 -28.532377243041992 -125.58867645263672 56.106040954589844 161.5995635986328 6.9748358726501465 17.966758728027344 9.619611740112305 -131.57125854492188 10.121438980102539 70.39398956298828 85.91900634765625 -33.006683349609375 120.86185455322266 -92.91450500488281 -23.516687393188477 -118.55191802978516 25.116422653198242 -21.554195404052734 -42.517086029052734 -146.33486938476562 28.73358917236328 -137.60302734375 23.293764114379883 40.47749328613281 5.3841729164123535 44.78424835205078 24.314443588256836 164.02725219726562 65.16435241699219 45.29188537597656 -171.17623901367188 84.0501480102539 -57.643943786621094 62.03986740112305 -41.67735290527344 28.595287322998047 -154.298583984375 166.75633239746094 32.99317932128906 29.262956619262695 -55.9450569152832 -8.096996307373047 115.8768539428711 -84.89839172363281 -52.67307662963867 68.37934112548828 81.22776794433594 -9.602476119995117 127.52902221679688 114.09806060791016 -40.389095306396484 -32.12873840332031 155.8881378173828 -19.735984802246094 -6.262045383453369
